<svg width="107" height="23" viewBox="0 0 107 23" fill="none" xmlns="http://www.w3.org/2000/svg">
<path opacity="0.45" d="M35.8027 6.0397C35.8027 4.63252 37.2033 3.63083 38.5313 4.10668C41.6299 5.21946 43.8451 8.17269 43.8451 11.6406C43.8451 15.1086 41.6299 18.0618 38.5313 19.1746C37.2014 19.6523 35.8027 18.6488 35.8027 17.2416V6.0397Z" fill="black"/>
<path d="M33.777 3.32897C33.777 1.24227 31.6994 -0.246378 29.7279 0.460915C25.1302 2.1125 21.8418 6.49513 21.8418 11.6406C21.8418 16.7879 25.1283 21.1705 29.7279 22.8203C31.7013 23.5276 33.777 22.0389 33.777 19.9522V3.32897Z" fill="black"/>
<path d="M0 3.30502C0 3.09024 0.0390586 2.88657 0.120896 2.69771C0.202733 2.50885 0.314328 2.34406 0.451963 2.20705C0.591458 2.06818 0.756992 1.95894 0.946705 1.87747C1.13642 1.79415 1.33543 1.75342 1.5456 1.75342C1.75206 1.75342 1.95107 1.79415 2.14078 1.87747C2.33049 1.95894 2.49789 2.06818 2.6411 2.20705C2.78432 2.34592 2.89777 2.50885 2.97961 2.69771C3.06145 2.88657 3.10423 3.09024 3.10423 3.30502C3.10423 3.51239 3.06145 3.70866 2.97961 3.89381C2.89777 4.07897 2.78432 4.24191 2.6411 4.37892C2.49789 4.51779 2.33235 4.62703 2.14078 4.71035C1.95107 4.79182 1.75206 4.83255 1.5456 4.83255C1.33729 4.83255 1.13828 4.79182 0.946705 4.71035C0.756992 4.62703 0.591458 4.51779 0.451963 4.37892C0.314328 4.24191 0.202733 4.08082 0.120896 3.89381C0.0390586 3.70866 0 3.51239 0 3.30502ZM2.96101 16.7954C2.96101 16.9936 2.92381 17.1769 2.84942 17.3454C2.77502 17.5138 2.6783 17.6601 2.54997 17.786C2.42535 17.9119 2.2747 18.0101 2.10358 18.0841C1.92875 18.1563 1.74834 18.1934 1.55862 18.1934C1.36891 18.1934 1.18478 18.1563 1.00994 18.0841C0.838829 18.0082 0.688175 17.9082 0.557979 17.7842C0.427784 17.6583 0.325488 17.512 0.251091 17.3435C0.176693 17.175 0.143215 16.9917 0.143215 16.7936V7.55989C0.143215 7.37103 0.180413 7.19143 0.26039 7.02294C0.336648 6.85445 0.440804 6.70632 0.572859 6.57672C0.703054 6.44711 0.853709 6.34527 1.02482 6.27306C1.19966 6.20085 1.38565 6.16382 1.5828 6.16382C1.77251 6.16382 1.95293 6.20085 2.12218 6.27306C2.29144 6.34712 2.44023 6.44896 2.56485 6.57672C2.68946 6.70632 2.78804 6.85445 2.85685 7.02294C2.92753 7.18958 2.96287 7.36918 2.96287 7.55989V16.7954H2.96101Z" fill="black"/>
<path d="M16.2272 16.8324C16.2272 17.0305 16.1901 17.2138 16.1157 17.3823C16.0413 17.5508 15.9445 17.6971 15.8236 17.823C15.7027 17.9489 15.5558 18.0451 15.3866 18.1137C15.2173 18.184 15.0369 18.2173 14.849 18.2173C14.6482 18.2173 14.4622 18.184 14.2873 18.1137C14.1162 18.0451 13.9637 17.947 13.8354 17.823C13.7052 17.6971 13.5992 17.5508 13.5229 17.3823C13.4429 17.2157 13.4057 17.0324 13.4057 16.8324V12.022C13.4057 11.9535 13.4076 11.9017 13.4188 11.8665C13.4002 11.4444 13.3109 11.0481 13.1509 10.6778C12.9891 10.3075 12.7771 9.98349 12.513 9.7076C12.2507 9.43172 11.9364 9.21324 11.5737 9.05401C11.2092 8.89477 10.8148 8.81515 10.3908 8.81515C9.94812 8.81515 9.54079 8.89477 9.16881 9.05401C8.79868 9.21324 8.47877 9.43543 8.21652 9.72056C7.95241 10.0057 7.74224 10.339 7.59158 10.7223C7.44093 11.1055 7.36467 11.5166 7.36467 11.9572V16.8324C7.36467 17.0305 7.33119 17.2138 7.26238 17.3823C7.19356 17.5508 7.09498 17.6971 6.96851 17.823C6.84389 17.9489 6.6951 18.0451 6.52956 18.1137C6.36031 18.184 6.1799 18.2173 5.99018 18.2173C5.80047 18.2173 5.61634 18.184 5.44522 18.1137C5.27039 18.0451 5.11787 17.947 4.9821 17.823C4.85004 17.6971 4.74403 17.5508 4.66405 17.3823C4.58779 17.2157 4.54688 17.0324 4.54688 16.8324V12.022V11.9702V11.9572C4.54688 11.1296 4.69567 10.3556 4.99326 9.63539C5.29271 8.91699 5.70561 8.28561 6.22825 7.74681C6.75089 7.20801 7.37211 6.78215 8.08633 6.47294C8.80054 6.16188 9.56869 6.00635 10.3908 6.00635C11.2222 6.00635 11.9922 6.16188 12.7045 6.47294C13.4132 6.78215 14.0269 7.20801 14.5496 7.74681C15.0685 8.28561 15.4777 8.91514 15.7753 9.63539C16.0747 10.3538 16.2254 11.1296 16.2254 11.9572V11.9702V12.022V16.8324H16.2272Z" fill="black"/>
<path d="M102.195 2.35332C102.195 1.03317 103.248 0 104.595 0C105.941 0 106.999 1.02946 106.999 2.35332C106.999 3.66978 105.941 4.70295 104.595 4.70295C103.254 4.70295 102.195 3.66978 102.195 2.35332ZM106.406 2.35332C106.406 1.32942 105.618 0.540654 104.595 0.540654C103.581 0.540654 102.783 1.33127 102.783 2.35332C102.783 3.36798 103.581 4.166 104.595 4.166C105.618 4.16785 106.406 3.36798 106.406 2.35332ZM103.68 3.42167V1.20351H104.795C105.264 1.20351 105.593 1.4905 105.593 1.89044C105.593 2.23668 105.402 2.49034 105.089 2.54774L105.711 3.41982H105.074L104.556 2.61995H104.193V3.41982H103.68V3.42167ZM104.193 2.23668H104.688C104.913 2.23668 105.045 2.12003 105.045 1.92006C105.045 1.72565 104.922 1.62752 104.702 1.62752H104.193V2.23668Z" fill="black"/>
<path d="M49.1855 12.0353V2.85345C49.1855 2.64608 49.2227 2.45352 49.2971 2.27762C49.3715 2.10172 49.4683 1.94619 49.5966 1.81288C49.7212 1.67772 49.8719 1.57588 50.043 1.50182C50.2178 1.42776 50.4038 1.39258 50.601 1.39258C50.8093 1.39258 50.9971 1.42776 51.1682 1.50182C51.3375 1.57588 51.4826 1.67772 51.6109 1.81288C51.7355 1.94619 51.8341 2.10172 51.9029 2.27762C51.9717 2.45352 52.0052 2.64608 52.0052 2.85345V6.88799C52.4999 6.56952 53.03 6.32141 53.5992 6.14366C54.1664 5.96777 54.7616 5.87889 55.3847 5.87889C56.2421 5.87889 57.0438 6.04183 57.7933 6.364C58.5429 6.68802 59.1957 7.12869 59.7537 7.68416C60.3154 8.23962 60.7543 8.89322 61.0798 9.6431C61.4053 10.393 61.5671 11.1947 61.5671 12.0483C61.5671 12.8926 61.4053 13.6906 61.0798 14.4405C60.7543 15.1922 60.3154 15.8458 59.7537 16.405C59.1957 16.966 58.541 17.4067 57.7933 17.7307C57.0438 18.0529 56.2421 18.2158 55.3847 18.2158C54.5347 18.2158 53.7331 18.0529 52.9817 17.7307C52.2265 17.4067 51.5681 16.966 51.0046 16.405C50.4429 15.8458 49.9983 15.1904 49.6728 14.4405C49.3492 13.6906 49.1855 12.8926 49.1855 12.0483V12.0353ZM52.0033 12.0483C52.0033 12.5056 52.0926 12.9389 52.2712 13.3481C52.4497 13.7573 52.6915 14.1146 52.9984 14.4201C53.3053 14.7275 53.6624 14.9682 54.0697 15.1441C54.477 15.32 54.9141 15.4088 55.3828 15.4088C55.8478 15.4088 56.2886 15.32 56.6922 15.1441C57.0996 14.9682 57.4567 14.7256 57.7636 14.4201C58.0723 14.1146 58.3122 13.7573 58.4852 13.3481C58.6563 12.9389 58.7437 12.5056 58.7437 12.0483C58.7437 11.5835 58.6563 11.1447 58.4852 10.7355C58.3104 10.3263 58.0723 9.97083 57.7636 9.66902C57.4567 9.36722 57.0996 9.12837 56.6922 8.95062C56.2868 8.77472 55.8478 8.684 55.3828 8.684C54.9141 8.684 54.477 8.77287 54.0697 8.95062C53.6624 9.12652 53.3053 9.36722 52.9984 9.66902C52.6915 9.97083 52.4479 10.3263 52.2712 10.7355C52.0926 11.1447 52.0033 11.5835 52.0033 12.0483Z" fill="black"/>
<path d="M65.8622 17.2287C65.7878 17.3953 65.6929 17.5416 65.5702 17.6619C65.4493 17.7823 65.3061 17.8786 65.1405 17.9526C64.9768 18.0248 64.7983 18.0619 64.6086 18.0619C64.4077 18.0619 64.2199 18.0248 64.0413 17.9526C63.8646 17.8786 63.7102 17.7823 63.58 17.6619C63.4498 17.5416 63.3438 17.3953 63.2676 17.2287C63.1913 17.0602 63.1504 16.8769 63.1504 16.6788V12.5017C63.1504 11.6129 63.3196 10.7779 63.6637 9.9928C64.006 9.20959 64.4709 8.52267 65.0587 7.93573C65.6483 7.34878 66.3365 6.88589 67.1251 6.54521C67.9137 6.20452 68.7469 6.03418 69.6304 6.03418H69.6564C70.1251 6.03418 70.4841 6.16564 70.7408 6.42856C70.9956 6.69148 71.1239 7.02661 71.1239 7.43025C71.1239 7.62837 71.0849 7.81537 71.0067 7.98572C70.9268 8.15791 70.8207 8.30789 70.6868 8.43194C70.5511 8.55785 70.3985 8.65598 70.2218 8.73004C70.0414 8.8041 69.8536 8.83928 69.6546 8.83928H69.6285C69.1356 8.83928 68.6651 8.93371 68.2206 9.12442C67.7742 9.31328 67.3873 9.57435 67.0562 9.90022C66.7289 10.2279 66.4629 10.6112 66.2658 11.0519C66.0668 11.4926 65.9663 11.9629 65.9663 12.4609V16.6769C65.9719 16.8769 65.9347 17.0602 65.8622 17.2287Z" fill="black"/>
<path d="M71.0645 12.0483C71.0645 11.1947 71.2281 10.3948 71.5592 9.64867C71.8865 8.90249 72.3348 8.24889 72.8965 7.68973C73.46 7.1287 74.1166 6.68804 74.8662 6.36401C75.6157 6.04184 76.4136 5.87891 77.2636 5.87891C78.121 5.87891 78.9227 6.04184 79.6722 6.36401C80.4218 6.68804 81.0746 7.1287 81.6326 7.68973C82.1906 8.24889 82.6332 8.90249 82.9587 9.64867C83.2842 10.3948 83.446 11.1947 83.446 12.0483V16.6253C83.446 16.8234 83.4088 17.0104 83.3344 17.1808C83.2637 17.353 83.1596 17.5048 83.0294 17.6344C82.8992 17.764 82.7467 17.8677 82.5681 17.9455C82.3914 18.0232 82.2036 18.0621 82.0009 18.0621C81.6642 18.0621 81.3796 17.964 81.1434 17.764C80.9109 17.5659 80.7547 17.316 80.6784 17.0141C80.1837 17.3845 79.648 17.6789 79.0715 17.8936C78.4967 18.1103 77.8904 18.2177 77.2617 18.2177C76.4118 18.2177 75.6139 18.0547 74.8643 17.7326C74.1147 17.4085 73.4582 16.9679 72.8946 16.4068C72.3329 15.8477 71.8865 15.1922 71.5573 14.4423C71.2281 13.6906 71.0645 12.8926 71.0645 12.0483ZM73.8823 12.0483C73.8823 12.5056 73.9715 12.9389 74.1501 13.3481C74.3268 13.7573 74.5704 14.1146 74.8773 14.4201C75.1842 14.7275 75.5413 14.9682 75.9486 15.1441C76.356 15.32 76.793 15.4089 77.2617 15.4089C77.7267 15.4089 78.1675 15.32 78.5804 15.1441C78.9915 14.9682 79.3486 14.7256 79.6518 14.4201C79.9531 14.1146 80.1911 13.7573 80.366 13.3481C80.5371 12.9389 80.6245 12.5056 80.6245 12.0483C80.6245 11.5835 80.5371 11.1447 80.366 10.7355C80.1911 10.3263 79.9531 9.97084 79.6518 9.66904C79.3467 9.36723 78.9896 9.12838 78.5804 8.95063C78.1675 8.77474 77.7286 8.68401 77.2617 8.68401C76.8005 8.68401 76.3671 8.77288 75.9542 8.95063C75.5432 9.12653 75.1842 9.36723 74.8773 9.66904C74.5704 9.97084 74.3268 10.3263 74.1501 10.7355C73.9734 11.1447 73.8823 11.5835 73.8823 12.0483Z" fill="black"/>
<path d="M84.8848 3.17563C84.8848 2.96085 84.9238 2.75717 85.0057 2.56832C85.0875 2.37946 85.1991 2.21467 85.3367 2.07765C85.4762 1.93879 85.6418 1.82955 85.8315 1.74808C86.0212 1.66476 86.2202 1.62402 86.4304 1.62402C86.6368 1.62402 86.8358 1.66476 87.0256 1.74808C87.2153 1.82955 87.3827 1.93879 87.5259 2.07765C87.6691 2.21652 87.7826 2.37946 87.8644 2.56832C87.9462 2.75717 87.989 2.96085 87.989 3.17563C87.989 3.383 87.9462 3.57926 87.8644 3.76442C87.7826 3.94958 87.6691 4.11251 87.5259 4.24953C87.3827 4.38839 87.2171 4.49764 87.0256 4.58096C86.8358 4.66242 86.6368 4.70316 86.4304 4.70316C86.2221 4.70316 86.0231 4.66242 85.8315 4.58096C85.6418 4.49764 85.4762 4.38839 85.3367 4.24953C85.1991 4.11251 85.0875 3.94958 85.0057 3.76442C84.9257 3.57926 84.8848 3.383 84.8848 3.17563ZM87.8458 16.666C87.8458 16.8642 87.8086 17.0475 87.7342 17.216C87.6598 17.3845 87.5631 17.5307 87.4348 17.6566C87.3101 17.7825 87.1595 17.8807 86.9884 17.9547C86.8135 18.0269 86.6331 18.064 86.4434 18.064C86.2537 18.064 86.0696 18.0269 85.8947 17.9547C85.7236 17.8807 85.5711 17.7825 85.4428 17.6566C85.3126 17.5307 85.2103 17.3845 85.1359 17.216C85.0615 17.0475 85.028 16.8642 85.028 16.666V7.4305C85.028 7.24164 85.0652 7.06204 85.1452 6.89355C85.2214 6.72505 85.3256 6.57693 85.4576 6.44732C85.5878 6.31771 85.7385 6.21588 85.9096 6.14367C86.0844 6.07146 86.2704 6.03443 86.4676 6.03443C86.6573 6.03443 86.8377 6.07146 87.007 6.14367C87.1762 6.21773 87.325 6.31956 87.4496 6.44732C87.5742 6.57508 87.6728 6.72505 87.7416 6.89355C87.8123 7.06019 87.8477 7.23979 87.8477 7.4305V16.666H87.8458Z" fill="black"/>
<path d="M101.114 16.703C101.114 16.9011 101.077 17.0844 101.002 17.2529C100.928 17.4214 100.831 17.5677 100.71 17.6936C100.589 17.8195 100.443 17.9158 100.273 17.9843C100.104 18.0546 99.9236 18.088 99.7357 18.088C99.5349 18.088 99.3489 18.0546 99.174 17.9843C99.0029 17.9158 98.8504 17.8176 98.7221 17.6936C98.5919 17.5677 98.4859 17.4214 98.4096 17.2529C98.3296 17.0863 98.2924 16.903 98.2924 16.703V11.8927C98.2924 11.8241 98.2943 11.7723 98.3054 11.7371C98.2868 11.315 98.1976 10.9187 98.0376 10.5484C97.8758 10.1781 97.6638 9.85409 97.3997 9.57821C97.1374 9.30233 96.8231 9.08384 96.4604 8.92461C96.0959 8.76538 95.7016 8.68576 95.2775 8.68576C94.8348 8.68576 94.4275 8.76538 94.0555 8.92461C93.6854 9.08384 93.3655 9.30603 93.1032 9.59117C92.8391 9.87631 92.6289 10.2096 92.4783 10.5929C92.3276 10.9761 92.2514 11.3872 92.2514 11.8278V16.703C92.2514 16.9011 92.2179 17.0844 92.1491 17.2529C92.0803 17.4214 91.9817 17.5677 91.8552 17.6936C91.7306 17.8195 91.5818 17.9158 91.4163 17.9843C91.247 18.0546 91.0666 18.088 90.8769 18.088C90.6872 18.088 90.503 18.0546 90.3319 17.9843C90.1571 17.9158 90.0046 17.8176 89.8688 17.6936C89.7368 17.5677 89.6307 17.4214 89.5508 17.2529C89.4745 17.0863 89.4336 16.903 89.4336 16.703V11.8927V11.8408V11.8278C89.4336 11.0002 89.5824 10.2263 89.88 9.506C90.1776 8.78574 90.5923 8.15622 91.115 7.61741C91.6376 7.07861 92.2588 6.65275 92.973 6.34354C93.6872 6.03248 94.4554 5.87695 95.2775 5.87695C96.1089 5.87695 96.8789 6.03248 97.5912 6.34354C98.2999 6.65275 98.9136 7.07861 99.4363 7.61741C99.9552 8.15622 100.364 8.78574 100.662 9.506C100.961 10.2244 101.112 11.0002 101.112 11.8278V11.8408V11.8927V16.703H101.114Z" fill="black"/>
</svg>
